<?xml version="1.0" standalone="no"?>
<!DOCTYPE svg PUBLIC "-//W3C//DTD SVG 20010904//EN"
 "http://www.w3.org/TR/2001/REC-SVG-20010904/DTD/svg10.dtd">
<svg version="1.0" xmlns="http://www.w3.org/2000/svg"
 width="779.000000pt" height="359.000000pt" viewBox="0 0 779.000000 359.000000"
 preserveAspectRatio="xMidYMid meet">

<g transform="translate(0.000000,359.000000) scale(0.100000,-0.100000)"
fill="#000000" stroke="none">
<path d="M6050 3060 l0 -160 470 0 470 0 0 -465 0 -465 45 0 c29 0 47 -5 53
-15 7 -13 36 -15 198 -13 l189 3 0 635 0 635 -712 3 -713 2 0 -160z"/>
<path d="M1166 2291 c-66 -27 -106 -56 -142 -105 -78 -103 -80 -249 -6 -352
39 -54 129 -100 223 -115 91 -15 124 -31 149 -72 25 -40 25 -73 1 -113 -17
-28 -73 -64 -100 -64 -7 0 -11 -31 -11 -90 l0 -91 38 6 c122 21 212 83 252
177 19 44 22 65 18 133 -9 164 -106 262 -285 284 -38 5 -83 16 -99 24 -77 40
-70 163 10 201 74 35 170 7 182 -54 9 -45 24 -51 110 -48 91 3 94 7 70 91 -21
74 -68 130 -140 168 -79 43 -193 51 -270 20z"/>
<path d="M2198 1953 c-3 -338 -4 -360 -23 -393 -28 -49 -94 -80 -166 -80 -69
0 -104 12 -143 48 -53 50 -56 69 -56 347 l0 255 -96 0 -95 0 3 -288 3 -287 33
-67 c53 -108 140 -167 278 -188 173 -27 349 48 413 175 35 71 42 153 39 505
l-3 325 -92 3 -92 3 -3 -358z"/>
<path d="M2432 1803 l3 -508 93 -3 92 -3 0 293 c0 182 4 288 9 282 6 -5 70
-126 144 -269 l135 -260 86 -3 86 -3 134 268 135 268 0 -162 1 -163 95 0 95 0
0 385 0 386 -97 -3 -97 -3 -171 -365 c-93 -201 -174 -367 -179 -369 -6 -2 -91
164 -190 368 l-181 370 -98 1 -97 0 2 -507z"/>
<path d="M3870 1993 c-68 -175 -156 -401 -195 -503 -40 -102 -71 -188 -68
-192 2 -5 46 -8 97 -8 l94 0 91 261 c50 143 94 272 97 285 3 13 10 24 14 24 4
0 52 -127 107 -282 l100 -283 98 -3 c97 -3 97 -3 91 20 -14 57 -384 992 -393
995 -5 2 -65 -139 -133 -314z"/>
<path d="M4440 1925 l0 -385 95 0 95 0 0 210 c0 116 3 210 8 210 4 0 112 -151
240 -335 l234 -336 91 3 92 3 3 508 2 507 -95 0 -95 0 -2 -337 -3 -338 -235
337 -235 337 -97 0 -98 1 0 -385z"/>
<path d="M5352 2228 l3 -83 303 -3 302 -2 0 85 0 85 -305 0 -306 0 3 -82z"/>
<path d="M5990 2090 l0 -220 95 0 95 0 0 220 0 220 -95 0 -95 0 0 -220z"/>
<path d="M6578 1993 l-3 -318 -293 -3 -292 -2 2 -188 3 -187 93 -3 92 -3 0 96
0 95 200 0 200 0 0 -95 0 -96 93 3 92 3 3 508 2 507 -95 0 -95 0 -2 -317z"/>
<path d="M5562 1618 l3 -323 93 -3 92 -3 0 326 0 325 -95 0 -95 0 2 -322z"/>
<path d="M297 1514 c-4 -4 -7 -250 -7 -546 l0 -538 30 0 c20 0 30 -5 30 -15 0
-13 85 -15 705 -15 l705 0 0 215 0 215 -570 0 -570 0 -2 343 -3 342 -156 3
c-85 1 -158 -1 -162 -4z"/>
</g>
</svg>
